<svg width="35" height="43" viewBox="0 0 35 43" fill="none" xmlns="http://www.w3.org/2000/svg">
<path d="M34.6271 31.2458C33.9808 33.3784 32.9616 35.511 31.5696 37.6436C29.4318 40.9874 27.3023 42.6594 25.1811 42.6594C24.3691 42.6594 23.209 42.3864 21.701 41.8405C20.2758 41.2945 19.0246 41.0216 17.9474 41.0216C16.9366 41.0216 15.7599 41.3031 14.4176 41.8661C13.0753 42.4461 11.9815 42.7362 11.1364 42.7362C8.61742 42.7362 6.12334 40.5268 3.65412 36.1081C1.21804 31.6553 0 27.3645 0 23.2359C0 19.346 0.936316 16.1557 2.80895 13.6649C4.68158 11.2081 7.0348 9.97976 9.86861 9.97976C11.0618 9.97976 12.5284 10.2357 14.2685 10.7475C15.992 11.2593 17.1354 11.5152 17.6989 11.5152C18.4446 11.5152 19.6295 11.2252 21.2536 10.6451C22.9439 10.0651 24.3774 9.77503 25.554 9.77503C27.526 9.77503 29.291 10.3295 30.8487 11.4384C31.7105 12.0526 32.5722 12.9057 33.4339 13.9975C32.1248 15.1406 31.1802 16.1472 30.6001 17.0173C29.523 18.621 28.9844 20.3867 28.9844 22.3146C28.9844 24.4301 29.5561 26.3324 30.6996 28.0214C31.843 29.7104 33.1522 30.7852 34.6271 31.2458ZM25.2805 1.22765C25.2805 2.26835 25.0402 3.42847 24.5597 4.70802C24.0625 5.98757 23.2919 7.16475 22.2479 8.23957C21.353 9.16084 20.4581 9.77503 19.5632 10.0821C18.95 10.2698 18.0883 10.4148 16.978 10.5172C17.0277 7.97513 17.674 5.78284 18.9169 3.94029C20.1432 2.1148 22.2147 0.852318 25.1314 0.152832C25.148 0.204014 25.1687 0.297847 25.1935 0.434332C25.2184 0.570817 25.2391 0.664651 25.2557 0.715833C25.2557 0.784075 25.2598 0.869379 25.2681 0.971742C25.2764 1.07411 25.2805 1.15941 25.2805 1.22765Z" fill="white"/>
</svg>
