<svg width="24" height="15" viewBox="0 0 24 15" fill="none" xmlns="http://www.w3.org/2000/svg">
<path d="M20.5745 8.28279V13.6627C20.5745 13.857 20.4802 14.0251 20.2917 14.167C20.1031 14.309 19.8798 14.38 19.6218 14.38H13.9054V10.0761H10.0946V14.38H4.37822C4.12019 14.38 3.8969 14.309 3.70834 14.167C3.51978 14.0251 3.4255 13.857 3.4255 13.6627V8.28279C3.4255 8.27532 3.42798 8.26411 3.43294 8.24917C3.43791 8.23422 3.44039 8.22301 3.44039 8.21554L12 2.9029L20.5596 8.21554C20.5695 8.23049 20.5745 8.2529 20.5745 8.28279ZM23.8941 7.50943L22.9712 8.33883C22.8918 8.40608 22.7876 8.44718 22.6586 8.46212H22.6139C22.4849 8.46212 22.3807 8.43597 22.3013 8.38366L12 1.91659L1.69869 8.38366C1.5796 8.44344 1.46051 8.46959 1.34142 8.46212C1.21241 8.44718 1.1082 8.40608 1.02881 8.33883L0.105858 7.50943C0.0264645 7.43471 -0.00827016 7.34691 0.00165403 7.24604C0.0115782 7.14517 0.0661613 7.06484 0.165403 7.00507L10.8686 0.291411C11.1862 0.0971369 11.5633 0 12 0C12.4367 0 12.8138 0.0971369 13.1314 0.291411L16.7636 2.57786V0.392284C16.7636 0.287675 16.8083 0.201746 16.8976 0.134497C16.9869 0.0672486 17.101 0.0336243 17.24 0.0336243H20.0981C20.2371 0.0336243 20.3512 0.0672486 20.4405 0.134497C20.5298 0.201746 20.5745 0.287675 20.5745 0.392284V4.96519L23.8346 7.00507C23.9338 7.06484 23.9884 7.14517 23.9983 7.24604C24.0083 7.34691 23.9735 7.43471 23.8941 7.50943Z" fill="white"/>
</svg>
